<?xml version="1.0" standalone="no"?>
<!DOCTYPE svg PUBLIC "-//W3C//DTD SVG 20010904//EN"
 "http://www.w3.org/TR/2001/REC-SVG-20010904/DTD/svg10.dtd">
<svg version="1.0" xmlns="http://www.w3.org/2000/svg"
 width="2000.000000pt" height="2250.000000pt" viewBox="0 0 2000.000000 2250.000000"
 preserveAspectRatio="xMidYMid meet">

<g transform="translate(0.000000,2250.000000) scale(0.100000,-0.100000)"
fill="#000000" stroke="none">
<path d="M9520 21356 c-586 -216 -774 -293 -1035 -421 -194 -96 -397 -215
-527 -311 -50 -36 -93 -63 -96 -59 -3 3 2 81 12 173 17 168 14 213 -15 248
-17 20 -83 17 -128 -5 -21 -11 -137 -113 -257 -226 -368 -348 -453 -399 -611
-369 -96 18 -263 18 -350 0 -378 -80 -736 -400 -868 -778 l-27 -77 -57 -8
c-84 -12 -299 -7 -446 11 -153 19 -303 20 -377 5 -92 -19 -175 -72 -353 -225
-359 -308 -728 -658 -1321 -1255 l-362 -364 -45 -95 c-26 -52 -69 -165 -98
-250 -85 -259 -130 -338 -291 -522 -127 -144 -218 -236 -418 -421 -107 -100
-275 -255 -374 -346 -548 -509 -809 -899 -1007 -1510 -121 -374 -195 -738
-314 -1546 -57 -388 -112 -725 -139 -850 l-14 -69 113 -216 c371 -699 601
-1321 719 -1935 57 -301 58 -345 2 -401 -42 -42 -89 -51 -168 -32 l-60 15 5
-281 c5 -283 15 -381 54 -516 27 -92 177 -444 493 -1156 543 -1220 717 -1644
892 -2181 l73 -222 36 -1 c56 0 151 -53 211 -118 85 -93 115 -166 158 -397
129 -683 457 -1186 915 -1405 202 -96 365 -124 662 -113 366 13 611 -48 789
-197 124 -104 192 -152 295 -205 258 -132 532 -199 804 -194 l130 2 110 -60
c61 -33 281 -148 490 -255 532 -273 762 -402 1000 -562 79 -53 95 -60 137 -59
54 1 107 29 128 68 7 14 17 25 21 25 19 0 24 -34 29 -170 l5 -145 180 22 c658
81 998 106 1470 107 558 1 899 -37 1303 -146 l152 -41 73 21 c209 61 385 55
625 -23 118 -38 312 -131 469 -224 l102 -61 113 -6 c106 -6 115 -5 141 16 33
27 36 67 7 140 l-20 50 93 44 c121 59 243 94 528 151 171 35 246 46 273 41 47
-9 106 -62 191 -171 106 -135 172 -188 257 -209 l27 -6 0 162 c0 198 13 254
72 310 60 57 95 63 330 60 l207 -2 -2 172 c-1 169 0 174 26 228 18 36 50 75
92 112 35 32 152 153 259 270 107 117 241 258 298 314 158 152 335 278 362
256 6 -6 77 -82 157 -170 129 -142 146 -157 153 -138 12 28 0 124 -22 188 -43
123 -83 188 -176 286 -127 134 -149 182 -92 210 12 6 99 36 192 68 261 87 351
86 482 -2 37 -25 72 -48 76 -51 4 -2 -6 17 -22 44 -41 66 -58 134 -43 167 15
34 81 80 151 107 47 18 85 23 241 28 211 7 248 18 315 93 65 71 115 224 115
348 l0 52 231 276 c381 456 649 828 896 1247 302 510 587 1107 826 1732 63
165 68 163 -85 41 -225 -179 -395 -367 -564 -620 -57 -86 -123 -172 -145 -192
-67 -57 -149 -61 -215 -11 -25 19 -36 23 -39 13 -3 -7 -34 -107 -70 -222 -36
-116 -68 -212 -70 -215 -6 -6 -7 -13 9 184 8 94 13 171 11 173 -1 1 -78 -57
-171 -129 -597 -467 -1396 -1070 -1892 -1429 -727 -524 -1605 -1114 -1791
-1204 -74 -35 -93 -40 -155 -40 -49 -1 -81 5 -103 17 -47 25 -107 91 -134 147
-13 27 -26 49 -29 50 -3 0 -57 -45 -120 -101 -127 -111 -172 -139 -224 -139
-26 0 -40 7 -60 31 -22 26 -26 40 -26 94 0 35 4 75 10 90 10 26 10 26 -28 18
-20 -4 -66 -6 -102 -3 -36 2 -96 4 -133 5 -66 0 -70 -1 -102 -36 -18 -20 -43
-64 -55 -97 -24 -65 -51 -98 -73 -89 -7 3 -27 31 -45 64 -38 72 -65 99 -79 81
-6 -7 -21 -83 -33 -168 -28 -191 -35 -212 -43 -136 -10 100 -47 129 -109 84
-35 -25 -108 -132 -108 -160 0 -10 -3 -18 -7 -18 -5 0 -44 55 -88 121 -44 67
-117 160 -163 208 -78 81 -81 83 -62 43 27 -55 60 -184 60 -232 0 -20 -6 -45
-14 -55 -13 -18 -15 -18 -40 -2 -14 10 -33 28 -42 42 -9 14 -20 25 -24 25 -4
0 -10 -37 -14 -82 -15 -191 -14 -187 -60 -210 -23 -11 -90 -69 -151 -128 -60
-59 -125 -115 -144 -125 -24 -12 -84 -21 -205 -31 -348 -29 -724 -90 -1005
-163 l-114 -30 -221 54 c-745 181 -1356 275 -2316 355 -429 36 -829 152 -1240
358 -157 79 -440 241 -440 253 0 3 17 11 38 17 122 39 224 185 207 299 -8 55
-18 60 -38 18 -21 -45 -83 -89 -160 -114 -59 -19 -304 -71 -336 -71 -8 0 -98
82 -200 183 -243 238 -442 426 -1036 977 -686 637 -834 778 -1221 1165 -324
324 -543 555 -775 821 -249 284 -326 428 -629 1184 -78 195 -167 406 -196 468
l-53 113 -32 -36 c-38 -43 -78 -65 -118 -65 -62 0 -147 118 -183 253 -23 89
26 195 101 218 33 10 44 8 82 -10 24 -11 53 -27 65 -36 19 -14 14 28 -82 702
-57 395 -103 749 -104 787 0 109 27 195 122 388 146 297 120 154 273 1544 74
672 144 1277 155 1345 87 508 233 963 460 1424 336 685 793 1272 1565 2009
258 247 927 864 1018 939 99 82 230 167 487 315 124 71 387 226 586 344 628
375 803 473 1122 633 715 356 1332 536 2055 600 126 11 272 15 495 13 420 -3
543 0 623 17 177 36 273 143 300 331 9 64 6 410 -4 420 -1 1 -27 -4 -57 -12
-113 -30 -207 7 -375 147 -60 51 -133 107 -162 125 -48 32 -162 80 -208 90
-11 2 -171 -52 -355 -120z m-7847 -12909 c42 -42 95 -146 187 -361 84 -198
115 -262 164 -335 20 -30 35 -56 32 -58 -9 -9 -166 80 -210 118 -63 56 -92
123 -105 241 -11 112 -42 197 -120 332 -28 49 -51 90 -51 92 0 2 16 4 35 4 26
0 43 -8 68 -33z m-271 -4 c13 -15 138 -402 138 -427 0 -4 -48 52 -106 125 -59
74 -120 148 -136 166 -25 26 -29 36 -23 62 7 34 66 91 94 91 10 0 25 -8 33
-17z"/>
<path d="M12975 20820 c-299 -8 -321 -12 -397 -79 -42 -37 -93 -113 -104 -154
-5 -21 -11 -27 -23 -23 -9 3 -49 17 -89 31 -65 23 -88 26 -210 26 -184 -1
-367 -16 -422 -36 -188 -67 -302 -257 -270 -448 19 -109 67 -193 175 -301 288
-290 755 -470 1284 -495 l156 -7 155 -88 c725 -414 1266 -774 2565 -1706 729
-523 934 -667 979 -685 97 -41 255 -4 470 110 67 36 132 65 142 65 19 0 20 -8
20 -182 0 -286 34 -434 194 -848 102 -263 138 -336 216 -431 65 -80 118 -125
256 -218 275 -186 392 -408 391 -746 -1 -152 -21 -278 -67 -413 l-25 -73 98
-192 c134 -263 241 -437 372 -603 96 -122 286 -311 362 -361 90 -57 107 -93
105 -218 -1 -74 3 -100 22 -143 59 -135 164 -120 272 38 l17 25 0 -30 c1 -16
-12 -140 -28 -275 -49 -407 -55 -486 -55 -725 0 -221 12 -346 43 -450 l8 -30
6 35 c3 19 13 123 22 230 56 672 183 1326 342 1748 19 52 32 96 30 99 -9 9
-82 -35 -114 -69 -17 -18 -56 -71 -86 -118 -72 -112 -115 -150 -170 -150 l-24
0 -6 363 c-8 489 -28 724 -123 1472 -30 237 -66 529 -81 650 l-27 220 -1015
1625 c-1118 1791 -1065 1713 -1351 2000 -455 456 -1004 829 -1643 1114 -207
93 -354 149 -602 232 -638 212 -847 237 -1770 214z"/>
<path d="M10921 15428 c-63 -24 -138 -93 -171 -157 -31 -63 -60 -185 -60 -259
l0 -65 43 40 c56 52 114 85 223 129 189 77 224 107 224 194 0 120 -117 173
-259 118z"/>
<path d="M10084 15266 c-130 -30 -216 -95 -265 -200 -42 -90 -52 -160 -46
-326 6 -159 26 -285 86 -529 22 -87 45 -206 52 -262 22 -197 -5 -401 -71 -534
-43 -85 -56 -101 -74 -86 -26 22 -29 62 -6 93 25 34 18 34 -55 7 -63 -24 -135
-86 -135 -117 0 -34 48 -80 123 -118 88 -43 53 -39 -102 12 -181 60 -289 131
-315 208 -23 67 4 117 99 188 52 39 20 31 -92 -24 -55 -26 -97 -55 -127 -88
-41 -44 -46 -54 -46 -95 0 -25 7 -59 15 -74 17 -33 106 -116 148 -137 55 -29
19 -24 -81 11 -142 49 -243 97 -338 160 -162 108 -210 219 -148 343 30 61 86
112 181 164 78 43 79 46 3 17 -149 -56 -297 -155 -347 -231 -24 -36 -28 -52
-28 -114 0 -69 2 -76 41 -131 202 -285 858 -448 1734 -430 303 6 469 22 695
68 334 68 591 182 719 319 60 64 85 120 86 188 0 61 -15 103 -54 150 -15 17
-24 32 -20 32 4 0 41 -19 83 -41 242 -132 371 -271 359 -384 -16 -137 -182
-303 -411 -410 -382 -178 -927 -253 -1697 -233 -279 7 -470 26 -720 74 -260
49 -558 138 -737 220 -40 18 -73 31 -73 29 0 -2 52 -36 115 -76 63 -40 113
-74 111 -76 -7 -7 -200 69 -311 122 -298 143 -468 316 -469 480 0 77 27 138
94 209 224 237 777 427 1473 506 100 12 182 22 184 24 1 1 -7 49 -19 105 l-22
104 -106 -6 c-375 -22 -910 -102 -1250 -187 -734 -183 -1099 -442 -1100 -780
0 -30 5 -62 10 -70 5 -8 10 -10 10 -4 0 25 102 165 168 231 79 79 207 168 305
213 37 16 70 30 73 30 4 0 -36 -44 -88 -98 -106 -110 -140 -161 -162 -247 -32
-122 -12 -191 85 -286 278 -275 960 -486 1689 -524 63 -3 201 -15 305 -25 304
-31 489 -40 831 -40 442 0 702 22 1021 85 425 85 760 247 897 433 125 171 120
292 -18 427 -182 179 -535 313 -1051 399 -273 46 -644 81 -657 62 -18 -26 -5
-34 65 -41 243 -22 522 -68 700 -117 68 -19 83 -27 117 -66 183 -207 84 -395
-271 -518 -83 -28 -249 -74 -249 -69 0 2 32 25 71 51 173 114 171 221 -5 319
-60 33 -217 98 -223 91 -2 -1 22 -23 52 -47 60 -48 98 -96 116 -146 34 -98
-87 -196 -329 -267 l-53 -15 55 52 c30 29 58 65 62 80 13 57 -34 99 -149 132
-49 14 -61 22 -72 48 -29 71 -47 193 -47 322 0 145 15 247 67 453 81 325 102
594 57 738 -26 86 -72 157 -130 201 -86 65 -265 97 -388 69z"/>
<path d="M9304 15146 c-72 -72 -36 -132 117 -196 55 -24 116 -53 135 -66 l34
-24 -6 28 c-16 64 -54 165 -78 206 -35 60 -74 86 -126 86 -34 0 -48 -6 -76
-34z"/>
<path d="M9480 14703 c-393 -26 -544 -41 -815 -79 -934 -132 -1699 -404 -2094
-744 -203 -175 -300 -377 -272 -568 36 -247 260 -487 629 -675 234 -120 451
-193 892 -301 644 -158 1233 -250 1910 -298 231 -16 1005 -16 1220 0 625 48
1169 143 1649 287 148 44 425 144 419 151 -2 2 -42 -8 -88 -22 -455 -133 -954
-212 -1625 -256 -245 -16 -1106 -16 -1375 0 -1044 63 -1579 145 -2126 327
-519 173 -860 398 -985 650 l-44 88 0 117 0 117 44 89 c101 202 367 402 743
558 363 150 856 269 1388 335 191 24 513 51 605 51 93 0 92 -1 84 78 -5 37 -8
75 -8 85 -1 18 -22 19 -151 10z"/>
<path d="M10755 14606 c-4 -48 -5 -89 -3 -90 1 -2 80 -11 173 -20 733 -72
1403 -239 1795 -448 360 -191 531 -405 490 -613 -19 -97 -63 -169 -170 -276
-181 -182 -371 -286 -770 -421 -896 -303 -1985 -387 -3150 -242 -231 28 -606
90 -784 129 -65 14 -121 23 -124 21 -2 -3 54 -23 124 -45 646 -203 1511 -303
2479 -288 499 8 685 25 1035 92 1065 206 1738 565 1846 984 40 157 -42 350
-219 518 -175 165 -397 285 -803 433 -483 177 -1164 308 -1800 346 l-111 7 -8
-87z"/>
<path d="M10697 14275 c-10 -42 -17 -80 -17 -85 0 -6 16 -10 35 -10 20 0 102
-7 183 -15 922 -96 1664 -391 1946 -775 l44 -59 6 31 c47 238 -142 469 -524
639 -329 146 -817 257 -1457 328 -101 12 -187 21 -191 21 -5 0 -16 -34 -25
-75z"/>
<path d="M9590 13964 c-108 -18 -121 -22 -65 -19 199 12 235 17 235 31 0 17
-3 17 -170 -12z"/>
<path d="M13570 11371 c-14 -3 -38 -13 -55 -22 -85 -47 -385 -129 -469 -129
l-36 0 0 -59 0 -58 67 -7 c89 -9 147 -35 170 -78 17 -31 18 -96 18 -1373 0
-1229 -1 -1343 -17 -1377 -23 -51 -56 -69 -149 -82 l-79 -10 0 -53 0 -53 435
0 435 0 0 54 0 53 -82 7 c-96 8 -143 28 -169 70 -18 30 -19 82 -19 1579 0
1231 -3 1547 -12 1546 -7 -1 -24 -4 -38 -8z"/>
<path d="M5090 11133 c-254 -13 -533 -22 -747 -22 l-343 -1 0 -59 0 -58 120
-6 c131 -6 165 -17 204 -70 l21 -28 3 -1292 c2 -1463 9 -1340 -79 -1385 -37
-19 -68 -24 -158 -29 l-111 -6 0 -53 0 -54 550 0 550 0 0 54 0 53 -120 6
c-133 6 -193 26 -227 75 -17 26 -18 85 -21 1329 l-2 1301 115 7 c198 13 504
11 590 -4 179 -30 308 -87 406 -179 120 -112 172 -247 171 -447 0 -180 -42
-277 -171 -397 -118 -111 -230 -165 -426 -206 -107 -23 -144 -26 -343 -26
-218 -1 -223 -1 -218 -21 2 -11 10 -48 16 -82 l12 -62 76 -7 c41 -3 128 -4
192 -2 l117 5 363 -561 c200 -309 400 -613 445 -676 45 -63 87 -125 94 -137
l12 -23 319 0 320 0 0 54 0 53 -64 6 c-92 9 -153 44 -264 150 -89 86 -117 126
-464 645 -203 305 -372 560 -374 567 -3 8 23 26 73 49 120 57 239 141 346 245
186 180 261 336 289 604 23 215 -22 358 -151 480 -118 111 -271 181 -461 211
-147 23 -224 23 -660 -1z"/>
<path d="M7390 11069 c-98 -44 -150 -122 -150 -221 1 -148 100 -237 241 -214
53 8 127 47 161 83 97 102 68 295 -54 359 -40 21 -144 18 -198 -7z"/>
<path d="M9520 10135 c-252 -51 -475 -234 -580 -478 -14 -31 -28 -57 -32 -57
-5 0 -8 119 -8 265 l0 265 -35 0 c-19 0 -55 -12 -82 -28 -107 -62 -338 -149
-425 -159 l-48 -6 0 -52 0 -52 66 -11 c84 -14 139 -49 165 -105 18 -41 19 -85
19 -1233 0 -844 -3 -1200 -11 -1223 -16 -46 -78 -79 -167 -87 l-72 -7 0 -58 0
-59 435 0 435 0 0 59 0 58 -84 6 c-99 7 -148 25 -173 63 -17 26 -18 61 -21
442 -3 398 -3 414 15 409 10 -4 59 -21 108 -39 87 -32 95 -33 245 -33 132 0
167 3 235 23 168 49 317 143 454 288 223 235 353 537 391 903 35 353 -25 589
-195 756 -116 115 -256 166 -454 164 -64 0 -145 -7 -181 -14z m122 -286 c194
-41 359 -204 415 -412 21 -75 22 -290 4 -412 -66 -434 -299 -745 -608 -810
-88 -19 -145 -19 -218 0 -107 28 -264 138 -315 220 -21 33 -21 42 -18 437 l3
403 33 70 c49 103 175 288 246 360 132 134 281 181 458 144z"/>
<path d="M11879 10135 c-147 -29 -287 -105 -396 -214 -72 -71 -147 -180 -183
-263 -14 -32 -28 -58 -32 -58 -5 0 -8 119 -8 265 l0 265 -32 0 c-17 0 -56 -14
-87 -31 -113 -64 -378 -159 -444 -159 -26 0 -27 -2 -27 -54 l0 -54 53 -7 c99
-14 148 -43 178 -110 18 -38 19 -97 19 -1238 0 -1334 5 -1239 -70 -1277 -21
-11 -70 -23 -109 -26 l-71 -7 0 -58 0 -59 435 0 435 0 0 59 0 58 -86 6 c-51 4
-101 13 -122 24 -67 33 -67 32 -70 487 -4 393 -3 409 15 403 10 -4 59 -21 108
-38 77 -28 107 -33 211 -37 194 -7 350 34 514 136 93 57 278 240 343 338 167
255 251 527 264 864 3 84 1 177 -6 221 -42 295 -205 495 -457 559 -91 24 -270
26 -375 5z m140 -290 c167 -40 315 -175 378 -345 47 -126 53 -302 16 -520 -53
-323 -230 -603 -447 -710 -124 -61 -253 -83 -355 -59 -105 24 -241 112 -311
200 l-41 52 3 406 3 406 33 70 c49 103 177 290 247 361 139 138 289 182 474
139z"/>
<path d="M15125 10143 c-209 -32 -396 -127 -558 -282 -259 -247 -392 -587
-374 -950 8 -160 35 -262 107 -406 121 -243 287 -399 500 -471 79 -27 387 -27
510 0 236 51 408 142 542 284 61 66 138 175 138 197 0 6 -15 25 -33 43 l-33
32 -54 -61 c-91 -104 -254 -196 -417 -236 -45 -11 -111 -17 -198 -17 -111 0
-140 3 -195 23 -146 51 -270 156 -377 320 -102 153 -159 315 -170 482 l-6 86
109 6 c60 4 375 14 699 23 325 9 595 21 602 26 25 20 46 147 40 247 -13 226
-130 432 -318 557 -115 76 -189 97 -349 100 -74 1 -148 0 -165 -3z m150 -259
c133 -32 218 -93 266 -190 29 -59 33 -77 37 -175 4 -86 2 -110 -9 -113 -8 -3
-196 -12 -419 -20 -223 -9 -450 -19 -504 -22 l-99 -7 7 73 c22 220 131 366
329 442 99 38 263 43 392 12z"/>
<path d="M7540 10076 c-137 -64 -309 -123 -385 -132 l-55 -7 0 -57 0 -56 81
-11 c91 -12 124 -31 152 -84 16 -32 17 -82 15 -744 -3 -650 -4 -713 -20 -741
-21 -38 -54 -51 -153 -60 l-75 -7 0 -53 0 -54 435 0 435 0 0 54 0 53 -75 6
c-87 8 -130 24 -165 62 l-25 27 -3 929 -2 929 -23 0 c-12 0 -74 -24 -137 -54z"/>
</g>
</svg>
